<?xml version="1.0" standalone="no"?>
<!DOCTYPE svg PUBLIC "-//W3C//DTD SVG 20010904//EN"
 "http://www.w3.org/TR/2001/REC-SVG-20010904/DTD/svg10.dtd">
<svg version="1.0" xmlns="http://www.w3.org/2000/svg"
 width="700.000000pt" height="700.000000pt" viewBox="0 0 700.000000 700.000000"
 preserveAspectRatio="xMidYMid meet">
<metadata>
Created by potrace 1.14, written by Peter Selinger 2001-2017
</metadata>
<g transform="translate(0.000000,700.000000) scale(0.100000,-0.100000)"
fill="#000000" stroke="none">
<path d="M3250 6994 c-482 -42 -888 -153 -1295 -354 -702 -347 -1248 -893
-1595 -1595 -177 -359 -282 -710 -337 -1120 -21 -165 -24 -614 -5 -790 74
-663 318 -1266 728 -1795 111 -143 423 -458 569 -574 525 -417 1132 -666 1820
-748 142 -17 586 -17 730 0 694 81 1288 326 1828 755 133 105 364 332 486 477
451 537 716 1160 803 1885 19 164 16 626 -5 789 -92 691 -362 1310 -798 1830
-562 671 -1365 1107 -2249 1222 -119 15 -573 27 -680 18z m465 -2828 c228 -77
390 -247 462 -481 13 -45 18 -92 17 -190 0 -114 -3 -140 -27 -210 -37 -111
-90 -197 -173 -279 -82 -83 -168 -136 -279 -173 -71 -24 -95 -27 -215 -27
-120 0 -144 3 -215 27 -111 37 -197 90 -279 173 -392 391 -195 1055 349 1180
96 22 262 13 360 -20z m-1325 -1017 c43 -131 73 -194 139 -294 53 -81 182
-219 261 -280 202 -155 450 -238 710 -238 310 0 578 106 799 318 153 146 241
285 308 484 l42 126 935 3 936 2 0 -37 c0 -21 -7 -85 -15 -143 -79 -557 -299
-1068 -649 -1500 -86 -107 -295 -319 -406 -412 -440 -370 -950 -596 -1545
-685 -152 -22 -628 -25 -775 -5 -594 84 -1090 295 -1540 656 -106 85 -318 294
-412 406 -280 333 -498 750 -607 1160 -38 145 -78 359 -87 473 l-7 87 938 -2
937 -3 38 -116z"/>
</g>
</svg>
